<svg viewBox="0 0 125 28" fill="none" xmlns="http://www.w3.org/2000/svg">
<path d="M13.9849 4.6585H9.35203V17.4767H4.63283V4.6585H0V0.428345H13.9849V4.6585Z" fill="white"/>
<path d="M22.48 12.2589H20.7768V17.4732H16.0784V0.424805H23.4716C27.1474 0.424805 29.8145 2.89383 29.8145 6.45752C29.8145 8.55016 28.7919 10.2629 27.106 11.2713L30.4916 17.4697H25.2473L22.48 12.2589ZM20.7768 8.30498H22.9223C24.2351 8.30498 24.9917 7.5142 24.9917 6.44717C24.9917 5.38013 24.2351 4.60316 22.9223 4.60316H20.7768V8.30498Z" fill="white"/>
<path d="M64.8528 8.94046C64.8528 13.9165 61.1977 17.4767 56.0501 17.4767H49.1475V0.428345H56.0501C61.2115 0.428345 64.8528 3.95751 64.8528 8.94046ZM60.0369 8.94046C60.0369 6.41272 58.3544 4.73102 55.829 4.73102H53.8667V13.1775H55.829C58.3544 13.1775 60.0369 11.4544 60.0369 8.94046Z" fill="white"/>
<path d="M66.4041 8.95411C66.4041 3.74325 70.3148 0 75.801 0C81.2699 0 85.1668 3.72944 85.1668 8.95411C85.1668 14.1788 81.2699 17.9082 75.801 17.9082C70.3148 17.9082 66.4041 14.165 66.4041 8.95411ZM80.2749 8.95411C80.2749 6.2848 78.3955 4.36828 75.801 4.36828C73.2065 4.36828 71.2995 6.29861 71.2995 8.95411C71.2995 11.6096 73.2065 13.5399 75.801 13.5399C78.3955 13.5365 80.2749 11.62 80.2749 8.95411Z" fill="white"/>
<path d="M97.3136 8.36716V11.33H99.6422C99.1032 12.6422 97.5658 13.509 95.7728 13.509C93.1852 13.509 91.4924 11.665 91.4924 8.96801C91.4924 6.24345 93.2163 4.4029 95.7728 4.4029C97.5106 4.4029 99.0341 5.3249 99.6525 6.76143H104.579C103.854 2.80062 100.195 0.00354004 95.7314 0.00354004C90.4732 0.00354004 86.6833 3.78132 86.6833 8.96801C86.6833 14.1582 90.5458 17.9083 95.7728 17.9083C101.114 17.9083 104.755 13.9475 104.755 8.37061H97.3136V8.36716Z" fill="white"/>
<path d="M106.237 8.95411C106.237 3.74325 110.148 0 115.634 0C121.103 0 125 3.72944 125 8.95411C125 14.1788 121.103 17.9082 115.634 17.9082C110.148 17.9082 106.237 14.165 106.237 8.95411ZM120.105 8.95411C120.105 6.2848 118.225 4.36828 115.631 4.36828C113.036 4.36828 111.129 6.29861 111.129 8.95411C111.129 11.6096 113.036 13.5399 115.631 13.5399C118.225 13.5365 120.105 11.62 120.105 8.95411Z" fill="white"/>
<path d="M40.963 0.428345L39.8782 4.63778H42.8735L39.17 14.5968L39.2806 7.6317H35.6876L37.9712 0.431801H32.0325V10.8846C32.0325 15.0768 35.1279 17.9118 39.4775 17.9118C43.8236 17.9118 46.9225 15.0802 46.9225 10.8846V0.431801H40.963V0.428345Z" fill="white"/>
<path d="M0 27.8361L1.54428 24.2863H2.07976L3.62404 27.8361H3.02982L2.64634 26.959H0.970788L0.590762 27.8361H0ZM1.1608 26.4721H2.45287L1.80684 24.9907L1.1608 26.4721Z" fill="white"/>
<path d="M4.49826 27.8224V27.2975C4.62609 27.3528 4.75737 27.3839 4.90247 27.3839C5.04412 27.3839 5.16158 27.3493 5.25486 27.2734C5.34813 27.1974 5.45177 27.042 5.56232 26.8107L4.18042 24.3105H4.80573L5.84907 26.2202L6.71622 24.3105H7.31043L6.01145 27.0835C5.7558 27.6325 5.41723 27.9053 4.99575 27.9053C4.78155 27.9053 4.61572 27.8777 4.49826 27.8224Z" fill="white"/>
<path d="M8.0498 24.307H10.9414V24.8146H9.77028V27.8362H9.21406V24.8146H8.0498V24.307Z" fill="white"/>
<path d="M12.1055 27.3907C11.7531 27.042 11.5769 26.6034 11.5769 26.0751C11.5769 25.5467 11.7531 25.1082 12.1055 24.7629C12.4579 24.4141 12.9035 24.2449 13.439 24.2449C13.8018 24.2449 14.1196 24.3243 14.396 24.4831V25.0426C14.1092 24.8561 13.7914 24.7663 13.4425 24.7663C13.0728 24.7663 12.7619 24.8941 12.5132 25.1392C12.2644 25.3844 12.1435 25.6987 12.1435 26.0785C12.1435 26.4584 12.2713 26.7726 12.5166 27.0212C12.7688 27.2699 13.0832 27.3907 13.4598 27.3907C13.8571 27.3907 14.1956 27.2837 14.4685 27.0696V27.629C14.1749 27.8155 13.8329 27.9122 13.4356 27.9122C12.907 27.9052 12.4648 27.7326 12.1055 27.3907Z" fill="white"/>
<path d="M17.0458 27.9053C16.5276 27.9053 16.0958 27.7291 15.7537 27.3804C15.4152 27.0281 15.2424 26.593 15.2424 26.0751C15.2424 25.5571 15.4152 25.122 15.7537 24.7732C16.0958 24.421 16.5241 24.2449 17.0458 24.2449C17.5675 24.2449 17.9959 24.421 18.3379 24.7732C18.6799 25.122 18.8527 25.5536 18.8527 26.0751C18.8527 26.593 18.6799 27.0281 18.3379 27.3804C17.9924 27.7257 17.564 27.9053 17.0458 27.9053ZM17.0458 27.3838C17.3947 27.3838 17.6849 27.2595 17.9233 27.0109C18.1617 26.7588 18.2826 26.448 18.2826 26.0716C18.2826 25.6952 18.1617 25.3844 17.9233 25.1392C17.6849 24.8872 17.3947 24.7629 17.0458 24.7629C16.6969 24.7629 16.4067 24.8906 16.1683 25.1392C15.9299 25.3879 15.8159 25.6987 15.8159 26.0716C15.8159 26.4446 15.9334 26.7588 16.1683 27.0109C16.4032 27.2595 16.6969 27.3838 17.0458 27.3838Z" fill="white"/>
<path d="M19.8787 27.8362V24.307H21.3988C21.7684 24.307 22.0552 24.4037 22.2624 24.5936C22.4732 24.7801 22.5803 25.0287 22.5803 25.3291C22.5803 25.6365 22.4732 25.8886 22.2624 26.0854C22.0552 26.2822 21.7684 26.3789 21.3988 26.3789H20.4349V27.8362H19.8787ZM20.4349 25.8713H21.3538C21.7719 25.8713 22.0206 25.6779 22.0206 25.343C22.0206 25.0045 21.7719 24.8181 21.3538 24.8181H20.4349V25.8713Z" fill="white"/>
<path d="M23.9417 27.3907C23.5893 27.042 23.4131 26.6034 23.4131 26.0751C23.4131 25.5467 23.5893 25.1082 23.9417 24.7629C24.2941 24.4141 24.7397 24.2449 25.2718 24.2449C25.6345 24.2449 25.9523 24.3243 26.2322 24.4831V25.0426C25.9454 24.8561 25.6276 24.7663 25.2787 24.7663C24.909 24.7663 24.5981 24.8941 24.3493 25.1392C24.104 25.3844 23.9797 25.6987 23.9797 26.0785C23.9797 26.4584 24.1075 26.7726 24.3528 27.0212C24.605 27.2699 24.9194 27.3907 25.2959 27.3907C25.6932 27.3907 26.0318 27.2837 26.3047 27.0696V27.629C26.0111 27.8155 25.6691 27.9122 25.2718 27.9122C24.7432 27.9052 24.301 27.7326 23.9417 27.3907Z" fill="white"/>
<path d="M27.2996 27.8362V24.307H27.8558V26.8969L29.7974 24.307H30.281V27.8362H29.7248V25.2325L27.7729 27.8362H27.2996Z" fill="white"/>
<path d="M31.4729 27.8362V24.307H32.0291V25.6986H33.8705V24.307H34.4267V27.8362H33.8705V26.2063H32.0291V27.8362H31.4729Z" fill="white"/>
<path d="M35.615 27.8362V24.307H38.0886V24.8146H36.1712V27.8362H35.615Z" fill="white"/>
<path d="M40.6213 27.8362V24.307H43.4922V27.8362H42.936V24.8146H41.1741V27.8362H40.6213Z" fill="white"/>
<path d="M44.6841 27.8362V24.307H47.1957V24.8146H45.2368V25.6952H46.8295V26.2028H45.2368V27.3216H47.2613V27.8293H44.6841V27.8362Z" fill="white"/>
<path d="M48.1938 27.8362V24.307H49.7105C50.0801 24.307 50.3669 24.4037 50.5742 24.5936C50.7849 24.7801 50.892 25.0287 50.892 25.3291C50.892 25.6365 50.7849 25.8886 50.5742 26.0854C50.3669 26.2822 50.0801 26.3789 49.7105 26.3789H48.7466V27.8362H48.1938ZM48.7501 25.8713H49.669C50.0871 25.8713 50.3358 25.6779 50.3358 25.343C50.3358 25.0045 50.0871 24.8181 49.669 24.8181H48.7501V25.8713Z" fill="white"/>
<path d="M52.2568 27.3907C51.9045 27.042 51.7283 26.6034 51.7283 26.0751C51.7283 25.5467 51.9045 25.1082 52.2568 24.7629C52.6092 24.4141 53.0549 24.2449 53.5904 24.2449C53.9531 24.2449 54.271 24.3243 54.5473 24.4831V25.0426C54.2606 24.8561 53.9428 24.7663 53.5938 24.7663C53.2242 24.7663 52.9133 24.8941 52.6645 25.1392C52.4158 25.3844 52.2949 25.6987 52.2949 26.0785C52.2949 26.4584 52.4227 26.7726 52.668 27.0212C52.9202 27.2699 53.2345 27.3907 53.6111 27.3907C54.0084 27.3907 54.347 27.2837 54.6199 27.0696V27.629C54.3262 27.8155 53.9842 27.9122 53.5869 27.9122C53.0584 27.9052 52.6161 27.7326 52.2568 27.3907Z" fill="white"/>
<path d="M57.1972 27.9053C56.679 27.9053 56.2471 27.7291 55.9051 27.3804C55.5665 27.0281 55.3938 26.593 55.3938 26.0751C55.3938 25.5571 55.5665 25.122 55.9051 24.7732C56.2471 24.421 56.6755 24.2449 57.1972 24.2449C57.7189 24.2449 58.1472 24.421 58.4893 24.7732C58.8313 25.122 59.004 25.5536 59.004 26.0751C59.004 26.593 58.8313 27.0281 58.4893 27.3804C58.1472 27.7257 57.7154 27.9053 57.1972 27.9053ZM57.1972 27.3838C57.5461 27.3838 57.8363 27.2595 58.0747 27.0109C58.3131 26.7588 58.434 26.448 58.434 26.0716C58.434 25.6952 58.3131 25.3844 58.0747 25.1392C57.8363 24.8872 57.5461 24.7629 57.1972 24.7629C56.8483 24.7629 56.5581 24.8906 56.3197 25.1392C56.0813 25.3879 55.9673 25.6987 55.9673 26.0716C55.9673 26.4446 56.0848 26.7588 56.3197 27.0109C56.5581 27.2595 56.8483 27.3838 57.1972 27.3838Z" fill="white"/>
<path d="M60.0334 27.8362V24.307H60.5897V25.6986H62.431V24.307H62.9873V27.8362H62.431V26.2063H60.5897V27.8362H60.0334Z" fill="white"/>
<path d="M63.8647 27.8361L65.409 24.2863H65.9445L67.4888 27.8361H66.8946L66.5111 26.959H64.8355L64.4555 27.8361H63.8647ZM65.0256 26.4721H66.3176L65.6716 24.9907L65.0256 26.4721Z" fill="white"/>
<path d="M68.1763 27.3253C68.2281 27.3391 68.2869 27.346 68.3629 27.346C68.6116 27.346 68.7705 27.2044 68.8569 26.8833C68.9536 26.5587 68.9847 26.1684 68.9985 25.5227L69.0124 24.3141H71.3616V27.8432H70.8054V24.8217H69.5444L69.5306 25.578C69.5168 26.3687 69.4511 26.8694 69.2818 27.2769C69.116 27.6809 68.8293 27.8571 68.3905 27.8571C68.2938 27.8571 68.2247 27.8467 68.1729 27.8329V27.3253H68.1763Z" fill="white"/>
<path d="M72.2458 27.8361L73.7901 24.2863H74.3256L75.8699 27.8361H75.2757L74.8922 26.959H73.2166L72.8401 27.8361H72.2458ZM73.4066 26.4721H74.6987L74.0527 24.9907L73.4066 26.4721Z" fill="white"/>
</svg>
