<svg width="19" height="19" viewBox="0 0 19 19" fill="none" xmlns="http://www.w3.org/2000/svg">
<path fill-rule="evenodd" clip-rule="evenodd" d="M10.7091 1.72727H8.29091C6.81136 1.72727 5.80558 1.72862 5.02816 1.79213C4.27089 1.85401 3.88363 1.96615 3.61349 2.1038C2.96347 2.43499 2.43499 2.96347 2.1038 3.61349C1.96615 3.88363 1.85401 4.27089 1.79213 5.02816C1.72862 5.80558 1.72727 6.81136 1.72727 8.29091V10.7091C1.72727 12.1886 1.72862 13.1944 1.79213 13.9718C1.85401 14.7291 1.96615 15.1164 2.1038 15.3865C2.43499 16.0365 2.96347 16.565 3.61349 16.8962C3.88363 17.0339 4.27089 17.146 5.02816 17.2079C5.80558 17.2714 6.81136 17.2727 8.29091 17.2727H10.7091C12.1886 17.2727 13.1944 17.2714 13.9718 17.2079C14.7291 17.146 15.1164 17.0339 15.3865 16.8962C16.0365 16.565 16.565 16.0365 16.8962 15.3865C17.0339 15.1164 17.146 14.7291 17.2079 13.9718C17.2714 13.1944 17.2727 12.1886 17.2727 10.7091V8.29091C17.2727 6.81136 17.2714 5.80558 17.2079 5.02816C17.146 4.27089 17.0339 3.88363 16.8962 3.61349C16.565 2.96347 16.0365 2.43499 15.3865 2.1038C15.1164 1.96615 14.7291 1.85401 13.9718 1.79213C13.1944 1.72862 12.1886 1.72727 10.7091 1.72727ZM0.564784 2.82932C0 3.93777 0 5.38882 0 8.29091V10.7091C0 13.6112 0 15.0622 0.564784 16.1707C1.06158 17.1457 1.8543 17.9384 2.82932 18.4352C3.93777 19 5.38882 19 8.29091 19H10.7091C13.6112 19 15.0622 19 16.1707 18.4352C17.1457 17.9384 17.9384 17.1457 18.4352 16.1707C19 15.0622 19 13.6112 19 10.7091V8.29091C19 5.38882 19 3.93777 18.4352 2.82932C17.9384 1.8543 17.1457 1.06158 16.1707 0.564784C15.0622 0 13.6112 0 10.7091 0H8.29091C5.38882 0 3.93777 0 2.82932 0.564784C1.8543 1.06158 1.06158 1.8543 0.564784 2.82932Z" fill="white"/>
<path fill-rule="evenodd" clip-rule="evenodd" d="M9.5 12.9545C11.4079 12.9545 12.9545 11.4079 12.9545 9.5C12.9545 7.59211 11.4079 6.04545 9.5 6.04545C7.59211 6.04545 6.04545 7.59211 6.04545 9.5C6.04545 11.4079 7.59211 12.9545 9.5 12.9545ZM9.5 14.6818C12.3618 14.6818 14.6818 12.3618 14.6818 9.5C14.6818 6.63816 12.3618 4.31818 9.5 4.31818C6.63816 4.31818 4.31818 6.63816 4.31818 9.5C4.31818 12.3618 6.63816 14.6818 9.5 14.6818Z" fill="white"/>
<path d="M15.5455 4.31818C15.5455 4.79516 15.1588 5.18182 14.6818 5.18182C14.2048 5.18182 13.8182 4.79516 13.8182 4.31818C13.8182 3.84121 14.2048 3.45455 14.6818 3.45455C15.1588 3.45455 15.5455 3.84121 15.5455 4.31818Z" fill="white"/>
</svg>
