<svg viewBox="0 0 218 49" fill="none" xmlns="http://www.w3.org/2000/svg">
<path d="M24.3896 8.12397H16.3099V30.479H8.07966V8.12397H0V0.746582H24.3896V8.12397Z" fill="#FE4E0F"/>
<path d="M39.2054 21.3793H36.235V30.4731H28.0409V0.740723H40.9346C47.3453 0.740723 51.9967 5.04671 51.9967 11.2618C51.9967 14.9113 50.2133 17.8984 47.273 19.6569L53.1776 30.4671H44.0315L39.2054 21.3793ZM36.235 14.4837H39.9766C42.2662 14.4837 43.5857 13.1046 43.5857 11.2437C43.5857 9.38281 42.2662 8.02777 39.9766 8.02777H36.235V14.4837Z" fill="#FE4E0F"/>
<path d="M113.103 15.5917C113.103 24.2699 106.729 30.479 97.7513 30.479H85.7131V0.746582H97.7513C106.753 0.746582 113.103 6.90144 113.103 15.5917ZM104.704 15.5917C104.704 11.1833 101.77 8.25044 97.3657 8.25044H93.9434V22.9811H97.3657C101.77 22.9811 104.704 19.976 104.704 15.5917Z" fill="#4394C3"/>
<path d="M115.808 15.616C115.808 6.52823 122.629 0 132.197 0C141.734 0 148.531 6.50414 148.531 15.616C148.531 24.7278 141.734 31.2319 132.197 31.2319C122.629 31.2319 115.808 24.7037 115.808 15.616ZM139.999 15.616C139.999 10.9607 136.722 7.61828 132.197 7.61828C127.672 7.61828 124.346 10.9848 124.346 15.616C124.346 20.2472 127.672 23.6137 132.197 23.6137C136.722 23.6076 139.999 20.2652 139.999 15.616Z" fill="#4394C3"/>
<path d="M169.715 14.592V19.7592H173.776C172.836 22.0477 170.155 23.5593 167.028 23.5593C162.515 23.5593 159.563 20.3434 159.563 15.6399C159.563 10.8883 162.569 7.67835 167.028 7.67835C170.058 7.67835 172.716 9.28631 173.794 11.7916H182.386C181.121 4.88396 174.74 0.00585938 166.956 0.00585938C157.785 0.00585938 151.176 6.59431 151.176 15.6399C151.176 24.6915 157.912 31.2318 167.028 31.2318C176.343 31.2318 182.693 24.3241 182.693 14.598H169.715V14.592Z" fill="#359F2B"/>
<path d="M185.278 15.616C185.278 6.52823 192.098 0 201.666 0C211.204 0 218 6.50414 218 15.616C218 24.7278 211.204 31.2319 201.666 31.2319C192.098 31.2319 185.278 24.7037 185.278 15.616ZM209.462 15.616C209.462 10.9607 206.185 7.61828 201.66 7.61828C197.135 7.61828 193.809 10.9848 193.809 15.616C193.809 20.2472 197.135 23.6137 201.66 23.6137C206.185 23.6076 209.462 20.2652 209.462 15.616Z" fill="#359F2B"/>
<path d="M71.4396 0.746582L69.5477 8.08784H74.7715L68.3126 25.4563L68.5054 13.3092H62.2393L66.2219 0.75261H55.8647V18.9823C55.8647 26.2934 61.2632 31.2378 68.8488 31.2378C76.4284 31.2378 81.8329 26.2994 81.8329 18.9823V0.75261H71.4396V0.746582Z" fill="#FE4E0F"/>
<path d="M42.5732 48.5464L45.2665 42.3555H46.2003L48.8936 48.5464H47.8573L47.1885 47.0168H44.2663L43.6035 48.5464H42.5732ZM44.5977 46.1676H46.8511L45.7244 43.584L44.5977 46.1676Z" fill="#020203"/>
<path d="M50.4181 48.5222V47.6068C50.641 47.7031 50.87 47.7573 51.123 47.7573C51.3701 47.7573 51.5749 47.6971 51.7376 47.5646C51.9003 47.4321 52.081 47.1611 52.2738 46.7576L49.8638 42.3975H50.9543L52.7739 45.7278L54.2862 42.3975H55.3225L53.0571 47.2334C52.6112 48.191 52.0208 48.6667 51.2857 48.6667C50.9121 48.6667 50.6229 48.6185 50.4181 48.5222Z" fill="#020203"/>
<path d="M56.6117 42.3911H61.6547V43.2764H59.6122V48.5459H58.6421V43.2764H56.6117V42.3911Z" fill="#020203"/>
<path d="M63.6851 47.7691C63.0706 47.1608 62.7633 46.396 62.7633 45.4746C62.7633 44.5531 63.0706 43.7883 63.6851 43.1861C64.2997 42.5778 65.077 42.2827 66.0108 42.2827C66.6435 42.2827 67.1978 42.4212 67.6798 42.6983V43.6739C67.1797 43.3487 66.6254 43.1921 66.0169 43.1921C65.3722 43.1921 64.8299 43.4149 64.3961 43.8425C63.9623 44.2701 63.7514 44.8181 63.7514 45.4806C63.7514 46.143 63.9744 46.6911 64.4021 47.1247C64.842 47.5583 65.3903 47.7691 66.047 47.7691C66.7399 47.7691 67.3303 47.5824 67.8063 47.209V48.1846C67.2942 48.5098 66.6977 48.6784 66.0048 48.6784C65.083 48.6664 64.3118 48.3653 63.6851 47.7691Z" fill="#020203"/>
<path d="M72.3011 48.6664C71.3973 48.6664 70.6442 48.3593 70.0477 47.751C69.4572 47.1367 69.156 46.3779 69.156 45.4746C69.156 44.5712 69.4572 43.8124 70.0477 43.2041C70.6442 42.5899 71.3913 42.2827 72.3011 42.2827C73.2109 42.2827 73.958 42.5899 74.5545 43.2041C75.151 43.8124 75.4522 44.5652 75.4522 45.4746C75.4522 46.3779 75.151 47.1367 74.5545 47.751C73.952 48.3533 73.2049 48.6664 72.3011 48.6664ZM72.3011 47.757C72.9096 47.757 73.4157 47.5402 73.8315 47.1066C74.2472 46.667 74.4581 46.125 74.4581 45.4685C74.4581 44.8121 74.2472 44.2701 73.8315 43.8425C73.4157 43.4029 72.9096 43.1861 72.3011 43.1861C71.6926 43.1861 71.1865 43.4089 70.7707 43.8425C70.355 44.2761 70.1562 44.8181 70.1562 45.4685C70.1562 46.119 70.361 46.667 70.7707 47.1066C71.1804 47.5402 71.6926 47.757 72.3011 47.757Z" fill="#020203"/>
<path d="M77.2417 48.5459V42.3911H79.8928C80.5374 42.3911 81.0375 42.5597 81.399 42.891C81.7666 43.2162 81.9533 43.6498 81.9533 44.1737C81.9533 44.7097 81.7666 45.1493 81.399 45.4926C81.0375 45.8359 80.5374 46.0045 79.8928 46.0045H78.2117V48.5459H77.2417ZM78.2117 45.1192H79.8144C80.5435 45.1192 80.9773 44.782 80.9773 44.1978C80.9773 43.6076 80.5435 43.2824 79.8144 43.2824H78.2117V45.1192Z" fill="#020203"/>
<path d="M84.3272 47.7691C83.7127 47.1608 83.4054 46.396 83.4054 45.4746C83.4054 44.5531 83.7127 43.7883 84.3272 43.1861C84.9418 42.5778 85.719 42.2827 86.6469 42.2827C87.2795 42.2827 87.8339 42.4212 88.3219 42.6983V43.6739C87.8218 43.3487 87.2675 43.1921 86.659 43.1921C86.0143 43.1921 85.472 43.4149 85.0382 43.8425C84.6104 44.2701 84.3935 44.8181 84.3935 45.4806C84.3935 46.143 84.6164 46.6911 85.0442 47.1247C85.4841 47.5583 86.0324 47.7691 86.6891 47.7691C87.382 47.7691 87.9724 47.5824 88.4484 47.209V48.1846C87.9363 48.5098 87.3398 48.6784 86.6469 48.6784C85.7251 48.6664 84.9538 48.3653 84.3272 47.7691Z" fill="#020203"/>
<path d="M90.1835 48.5459V42.3911H91.1535V46.9079L94.5396 42.3911H95.3831V48.5459H94.4131V44.0051L91.0089 48.5459H90.1835Z" fill="#020203"/>
<path d="M97.4618 48.5459V42.3911H98.4318V44.8181H101.643V42.3911H102.613V48.5459H101.643V45.7034H98.4318V48.5459H97.4618Z" fill="#020203"/>
<path d="M104.686 48.5459V42.3911H109V43.2764H105.656V48.5459H104.686Z" fill="#020203"/>
<path d="M113.417 48.5459V42.3911H118.423V48.5459H117.453V43.2764H114.381V48.5459H113.417Z" fill="#020203"/>
<path d="M120.502 48.5459V42.3911H124.882V43.2764H121.466V44.8121H124.244V45.6974H121.466V47.6486H124.997V48.5339H120.502V48.5459Z" fill="#020203"/>
<path d="M126.623 48.5459V42.3911H129.268C129.913 42.3911 130.413 42.5597 130.775 42.891C131.142 43.2162 131.329 43.6498 131.329 44.1737C131.329 44.7097 131.142 45.1493 130.775 45.4926C130.413 45.8359 129.913 46.0045 129.268 46.0045H127.587V48.5459H126.623ZM127.593 45.1192H129.196C129.925 45.1192 130.359 44.782 130.359 44.1978C130.359 43.6076 129.925 43.2824 129.196 43.2824H127.593V45.1192Z" fill="#020203"/>
<path d="M133.709 47.7691C133.094 47.1608 132.787 46.396 132.787 45.4746C132.787 44.5531 133.094 43.7883 133.709 43.1861C134.324 42.5778 135.101 42.2827 136.035 42.2827C136.667 42.2827 137.222 42.4212 137.704 42.6983V43.6739C137.203 43.3487 136.649 43.1921 136.041 43.1921C135.396 43.1921 134.854 43.4149 134.42 43.8425C133.986 44.2701 133.775 44.8181 133.775 45.4806C133.775 46.143 133.998 46.6911 134.426 47.1247C134.866 47.5583 135.414 47.7691 136.071 47.7691C136.764 47.7691 137.354 47.5824 137.83 47.209V48.1846C137.318 48.5098 136.721 48.6784 136.029 48.6784C135.107 48.6664 134.336 48.3653 133.709 47.7691Z" fill="#020203"/>
<path d="M142.325 48.6664C141.421 48.6664 140.668 48.3593 140.071 47.751C139.481 47.1367 139.18 46.3779 139.18 45.4746C139.18 44.5712 139.481 43.8124 140.071 43.2041C140.668 42.5899 141.415 42.2827 142.325 42.2827C143.235 42.2827 143.982 42.5899 144.578 43.2041C145.175 43.8124 145.476 44.5652 145.476 45.4746C145.476 46.3779 145.175 47.1367 144.578 47.751C143.982 48.3533 143.229 48.6664 142.325 48.6664ZM142.325 47.757C142.933 47.757 143.439 47.5402 143.855 47.1066C144.271 46.667 144.482 46.125 144.482 45.4685C144.482 44.8121 144.271 44.2701 143.855 43.8425C143.439 43.4029 142.933 43.1861 142.325 43.1861C141.716 43.1861 141.21 43.4089 140.794 43.8425C140.379 44.2761 140.18 44.8181 140.18 45.4685C140.18 46.119 140.385 46.667 140.794 47.1066C141.21 47.5402 141.716 47.757 142.325 47.757Z" fill="#020203"/>
<path d="M147.271 48.5459V42.3911H148.242V44.8181H151.453V42.3911H152.423V48.5459H151.453V45.7034H148.242V48.5459H147.271Z" fill="#020203"/>
<path d="M153.953 48.546L156.647 42.355H157.58L160.274 48.546H159.237L158.569 47.0163H155.646L154.984 48.546H153.953ZM155.978 46.1671H158.231L157.105 43.5835L155.978 46.1671Z" fill="#020203"/>
<path d="M161.472 47.6548C161.563 47.6789 161.665 47.6909 161.798 47.6909C162.232 47.6909 162.509 47.444 162.659 46.884C162.828 46.3179 162.882 45.6373 162.906 44.5111L162.931 42.4033H167.028V48.5582H166.058V43.2886H163.858L163.834 44.6075C163.81 45.9866 163.696 46.8599 163.4 47.5705C163.111 48.2751 162.611 48.5823 161.846 48.5823C161.677 48.5823 161.557 48.5642 161.466 48.5401V47.6548H161.472Z" fill="#020203"/>
<path d="M168.57 48.546L171.263 42.355H172.197L174.89 48.546H173.854L173.185 47.0163H170.263L169.606 48.546H168.57ZM170.594 46.1671H172.848L171.721 43.5835L170.594 46.1671Z" fill="#020203"/>
</svg>
