<svg width="22" height="18" viewBox="0 0 22 18" fill="none" xmlns="http://www.w3.org/2000/svg">
<path d="M3.25 6.97519e-09H18.75C19.5801 -5.43467e-05 20.3788 0.317554 20.9822 0.887671C21.5856 1.45779 21.948 2.23719 21.995 3.066L22 3.25V14.75C22.0001 15.5801 21.6824 16.3788 21.1123 16.9822C20.5422 17.5856 19.7628 17.948 18.934 17.995L18.75 18H3.25C2.41986 18.0001 1.62117 17.6824 1.01777 17.1123C0.414367 16.5422 0.0519987 15.7628 0.00500012 14.934L6.97518e-09 14.75V3.25C-5.43467e-05 2.41986 0.317554 1.62117 0.887672 1.01777C1.45779 0.414367 2.23719 0.0519987 3.066 0.00500012L3.25 6.97519e-09H18.75H3.25ZM20.5 5.905L11.346 10.665C11.2573 10.7111 11.1603 10.739 11.0607 10.747C10.9611 10.7551 10.8609 10.7432 10.766 10.712L10.654 10.665L1.5 5.905V14.75C1.50002 15.1892 1.66517 15.6123 1.96268 15.9354C2.26019 16.2585 2.6683 16.4579 3.106 16.494L3.25 16.5H18.75C19.1893 16.5 19.6126 16.3347 19.9357 16.037C20.2588 15.7392 20.4581 15.3309 20.494 14.893L20.5 14.75V5.905ZM18.75 1.5H3.25C2.81081 1.50002 2.38768 1.66517 2.06461 1.96268C1.74154 2.26019 1.54214 2.6683 1.506 3.106L1.5 3.25V4.214L11 9.154L20.5 4.214V3.25C20.5 2.81065 20.3347 2.38739 20.037 2.06429C19.7392 1.74119 19.3309 1.5419 18.893 1.506L18.75 1.5Z" fill="black"/>
</svg>
