<svg width="61" height="58" viewBox="0 0 61 58" fill="none" xmlns="http://www.w3.org/2000/svg">
<path d="M0 8.24995C0 6.31387 0.769105 4.45709 2.13812 3.08807C3.50714 1.71906 5.36392 0.949951 7.3 0.949951H51.1C53.0361 0.949951 54.8929 1.71906 56.2619 3.08807C57.6309 4.45709 58.4 6.31387 58.4 8.24995V19.7329C57.2999 18.7479 56.0722 17.9155 54.75 17.2582V8.24995C54.75 7.28191 54.3654 6.35352 53.6809 5.66901C52.9964 4.9845 52.068 4.59995 51.1 4.59995H7.3C6.33196 4.59995 5.40357 4.9845 4.71906 5.66901C4.03455 6.35352 3.65 7.28191 3.65 8.24995V37.45C3.65 38.418 4.03455 39.3464 4.71906 40.0309C5.40357 40.7154 6.33196 41.0999 7.3 41.0999H33.7917C34.0691 41.5124 34.3647 41.9139 34.675 42.3008V44.75H7.3C5.36392 44.75 3.50714 43.9808 2.13812 42.6118C0.769105 41.2428 0 39.386 0 37.45V8.24995Z" fill="black"/>
<path d="M60.2248 31.975C60.2248 35.4571 58.8342 38.6107 56.5748 40.9175V55.7C56.5748 56.039 56.4804 56.3712 56.3022 56.6595C56.1241 56.9478 55.8691 57.1808 55.566 57.3324C55.2628 57.4839 54.9235 57.5481 54.5859 57.5177C54.2484 57.4872 53.9259 57.3634 53.6548 57.16L48.5448 53.3275C48.2289 53.0906 47.8447 52.9625 47.4498 52.9625C47.0549 52.9625 46.6707 53.0906 46.3548 53.3275L41.2448 57.16C40.9737 57.3634 40.6513 57.4872 40.3137 57.5177C39.9761 57.5481 39.6368 57.4839 39.3336 57.3324C39.0305 57.1808 38.7755 56.9478 38.5974 56.6595C38.4192 56.3712 38.3248 56.039 38.3248 55.7V40.9175C36.8584 39.4209 35.7827 37.5866 35.1923 35.5762C34.602 33.5658 34.5152 31.4411 34.9396 29.3893C35.364 27.3374 36.2866 25.4215 37.626 23.8102C38.9655 22.199 40.6807 20.942 42.6204 20.1499C44.5602 19.3578 46.6651 19.055 48.7495 19.2682C50.8339 19.4813 52.8338 20.2039 54.5731 21.3722C56.3124 22.5406 57.7377 24.1188 58.7233 25.9677C59.7088 27.8167 60.2245 29.8798 60.2248 31.975ZM47.4498 44.75C45.4898 44.75 43.6356 44.312 41.9748 43.52V51.1375L46.5118 48.4146C46.7952 48.2448 47.1194 48.1551 47.4498 48.1551C47.7802 48.1551 48.1044 48.2448 48.3879 48.4146L52.9248 51.1375V43.52C51.2141 44.3323 49.3436 44.7526 47.4498 44.75ZM47.4498 41.1C49.8699 41.1 52.1909 40.1387 53.9022 38.4274C55.6134 36.7161 56.5748 34.3951 56.5748 31.975C56.5748 29.5549 55.6134 27.234 53.9022 25.5227C52.1909 23.8114 49.8699 22.85 47.4498 22.85C45.0297 22.85 42.7087 23.8114 40.9975 25.5227C39.2862 27.234 38.3248 29.5549 38.3248 31.975C38.3248 34.3951 39.2862 36.7161 40.9975 38.4274C42.7087 40.1387 45.0297 41.1 47.4498 41.1Z" fill="black"/>
<path d="M10.9502 13.7249C10.9502 13.2409 11.1425 12.7767 11.4847 12.4344C11.827 12.0922 12.2912 11.8999 12.7752 11.8999H45.6252C46.1092 11.8999 46.5734 12.0922 46.9157 12.4344C47.2579 12.7767 47.4502 13.2409 47.4502 13.7249C47.4502 14.2089 47.2579 14.6731 46.9157 15.0154C46.5734 15.3576 46.1092 15.5499 45.6252 15.5499H12.7752C12.2912 15.5499 11.827 15.3576 11.4847 15.0154C11.1425 14.6731 10.9502 14.2089 10.9502 13.7249Z" fill="black"/>
<path d="M12.7752 30.1499C12.2912 30.1499 11.827 30.3422 11.4847 30.6844C11.1425 31.0267 10.9502 31.4909 10.9502 31.9749C10.9502 32.4589 11.1425 32.9231 11.4847 33.2654C11.827 33.6076 12.2912 33.7999 12.7752 33.7999H27.3752C27.8592 33.7999 28.3234 33.6076 28.6657 33.2654C29.0079 32.9231 29.2002 32.4589 29.2002 31.9749C29.2002 31.4909 29.0079 31.0267 28.6657 30.6844C28.3234 30.3422 27.8592 30.1499 27.3752 30.1499H12.7752Z" fill="black"/>
</svg>
