<svg width="57" height="54" viewBox="0 0 57 54" fill="none" xmlns="http://www.w3.org/2000/svg">
<path d="M56.9595 27.056C56.9595 23.318 53.9335 21.36 49.8395 21.36H37.9135C38.8035 18.156 39.1595 15.13 39.1595 12.46C39.1595 2.136 36.3115 0 33.8195 0C32.2175 0 30.9715 0.178001 29.3695 1.068C28.8355 1.424 28.6575 1.78 28.4795 2.314L26.6995 11.926C24.7415 16.91 19.9355 21.36 16.0195 24.386V49.84C17.4435 49.84 18.8675 50.552 20.6475 51.442C22.6055 52.332 24.5635 53.4 26.6995 53.4H43.6095C47.1695 53.4 49.8395 50.552 49.8395 48.06C49.8395 47.526 49.8395 47.17 49.6615 46.814C51.7975 45.924 53.3995 44.144 53.3995 41.83C53.3995 40.762 53.2215 39.872 52.8655 38.982C54.2895 38.092 55.5355 36.49 55.5355 34.71C55.5355 33.642 55.0015 32.574 54.4675 31.684C55.8915 30.616 56.9595 28.836 56.9595 27.056ZM53.2215 27.056C53.2215 29.37 50.9075 29.548 50.5515 30.616C50.1955 31.862 51.9755 32.218 51.9755 34.354C51.9755 36.49 49.3055 36.49 48.9495 37.736C48.5935 39.16 49.8395 39.516 49.8395 41.652V42.008C49.4835 43.788 46.8135 43.966 46.2795 44.678C45.7455 45.568 46.2795 45.924 46.2795 47.882C46.2795 48.95 45.0335 49.662 43.6095 49.662H26.6995C25.2755 49.662 23.8515 48.95 22.0715 48.06C20.6475 47.348 19.2235 46.636 17.7995 46.28V27.59C22.2495 24.208 27.9455 19.224 30.0815 12.994V12.638L31.6835 3.738C32.3955 3.56 32.9295 3.56 33.8195 3.56C34.1755 3.56 35.5995 5.696 35.5995 12.46C35.5995 15.13 35.0655 17.978 34.1755 21.36H33.8195C32.7515 21.36 32.0395 22.072 32.0395 23.14C32.0395 24.208 32.7515 24.92 33.8195 24.92H49.8395C51.6195 24.92 53.2215 25.81 53.2215 27.056Z" fill="black"/>
<path d="M14.24 53.3999H3.56C1.602 53.3999 0 51.7979 0 49.8399V24.9199C0 22.9619 1.602 21.3599 3.56 21.3599H14.24C16.198 21.3599 17.8 22.9619 17.8 24.9199V49.8399C17.8 51.7979 16.198 53.3999 14.24 53.3999ZM3.56 24.9199V49.8399H14.24V24.9199H3.56Z" fill="black"/>
</svg>
