<svg width="22" height="21" viewBox="0 0 22 21" fill="none" xmlns="http://www.w3.org/2000/svg">
<path opacity="0.5" d="M17.0115 21C16.7973 20.9994 16.5839 20.9765 16.3748 20.9316C12.3931 20.1276 8.72493 18.2424 5.79244 15.4931C2.92252 12.7377 0.932083 9.22957 0.0619434 5.39304C-0.0406571 4.9149 -0.0154749 4.41902 0.135067 3.95313C0.28561 3.48723 0.556445 3.067 0.921518 2.73285L3.4684 0.339911C3.59849 0.219821 3.75306 0.127859 3.92202 0.0700266C4.09097 0.0121938 4.27053 -0.0102096 4.44896 0.00427847C4.63397 0.0231192 4.8125 0.0812958 4.972 0.174717C5.13151 0.268138 5.26811 0.394535 5.3722 0.54502L8.55581 5.13821C8.6752 5.31643 8.73283 5.52736 8.72022 5.73995C8.70761 5.95254 8.62543 6.15556 8.48577 6.31914L6.8876 8.18377C7.5241 9.5589 8.4255 10.8017 9.54273 11.8446C10.6527 12.9254 11.9647 13.7883 13.4076 14.3868L15.3878 12.8515C15.5542 12.7232 15.7565 12.6474 15.9681 12.6341C16.1796 12.6207 16.3903 12.6706 16.5721 12.777L21.3794 15.8101C21.5444 15.9062 21.6849 16.0376 21.7905 16.1943C21.8961 16.351 21.964 16.529 21.9891 16.7149C22.0142 16.9009 21.9959 17.09 21.9355 17.268C21.8751 17.4461 21.7743 17.6085 21.6404 17.7431L19.1572 20.1422C18.8752 20.4162 18.5404 20.6331 18.1721 20.7803C17.8038 20.9275 17.4094 21.0021 17.0115 21ZM4.34708 1.23493L1.80019 3.62787C1.59482 3.81467 1.44279 4.05044 1.35906 4.31199C1.27533 4.57353 1.26279 4.85185 1.32265 5.11957C2.13175 8.71962 3.99161 12.0139 6.67748 14.6043C9.43716 17.1909 12.8891 18.964 16.6358 19.7196C16.9194 19.7775 17.2133 19.7657 17.4911 19.6855C17.7689 19.6052 18.022 19.4589 18.2276 19.2596L20.7108 16.8605L16.0691 13.933L13.9425 15.5863C13.8611 15.6492 13.7651 15.6917 13.663 15.7102C13.5609 15.7286 13.4558 15.7223 13.3567 15.692C11.5909 15.0569 9.99064 14.0488 8.67042 12.7397C7.30488 11.4949 6.24491 9.96511 5.56959 8.26457C5.54102 8.16162 5.54007 8.05322 5.56683 7.94981C5.59359 7.8464 5.64717 7.75145 5.7224 7.6741L7.44155 5.66652L4.34708 1.23493Z" fill="black"/>
</svg>
