<svg width="19" height="18" viewBox="0 0 19 18" fill="none" xmlns="http://www.w3.org/2000/svg">
<path d="M8.79969 0.903977C9.10032 -0.0146358 10.3998 -0.0146356 10.7005 0.903977L12.1252 5.25734C12.2597 5.66834 12.6432 5.9463 13.0756 5.9463H17.6708C18.6412 5.9463 19.0428 7.1896 18.2558 7.75733L14.5507 10.4299C14.1977 10.6845 14.0499 11.1383 14.1853 11.5519L15.6034 15.8851C15.9045 16.8052 14.8531 17.5735 14.068 17.0072L10.3351 14.3146C9.98578 14.0626 9.51438 14.0626 9.16507 14.3146L5.43214 17.0072C4.64702 17.5735 3.59563 16.8052 3.89674 15.8851L5.31488 11.5519C5.45027 11.1383 5.30251 10.6845 4.94949 10.4299L1.24441 7.75733C0.457327 7.1896 0.858941 5.9463 1.82941 5.9463H6.42454C6.85699 5.9463 7.24043 5.66834 7.37494 5.25734L8.79969 0.903977Z" fill="#E36E36"/>
</svg>
