<svg width="38" height="38" viewBox="0 0 38 38" fill="none" xmlns="http://www.w3.org/2000/svg">
<circle cx="19" cy="19" r="19" fill="#439FD8"/>
<path d="M21.6208 28.1722C20.5841 28.1722 19.5708 27.8648 18.7088 27.2889C17.8469 26.713 17.1751 25.8944 16.7784 24.9366C16.3817 23.9789 16.2779 22.925 16.4801 21.9083C16.6823 20.8916 17.1815 19.9576 17.9146 19.2246C18.6476 18.4916 19.5815 17.9924 20.5982 17.7902C21.615 17.5879 22.6688 17.6917 23.6266 18.0884C24.5843 18.4851 25.4029 19.1569 25.9788 20.0189C26.5548 20.8808 26.8622 21.8942 26.8622 22.9308C26.8622 24.3209 26.3099 25.6541 25.327 26.637C24.344 27.62 23.0109 28.1722 21.6208 28.1722ZM21.6208 18.9998C20.8433 18.9998 20.0833 19.2304 19.4368 19.6623C18.7904 20.0942 18.2865 20.7082 17.989 21.4265C17.6914 22.1448 17.6136 22.9352 17.7653 23.6977C17.917 24.4603 18.2913 25.1607 18.8411 25.7105C19.3909 26.2603 20.0913 26.6347 20.8539 26.7863C21.6164 26.938 22.4068 26.8602 23.1251 26.5626C23.8434 26.2651 24.4574 25.7613 24.8893 25.1148C25.3213 24.4683 25.5518 23.7083 25.5518 22.9308C25.5518 21.8883 25.1376 20.8884 24.4004 20.1512C23.6632 19.414 22.6634 18.9998 21.6208 18.9998Z" fill="white"/>
<path d="M22.6622 24.8968L20.9653 23.1999V20.3105H22.2757V22.6626L23.586 23.973L22.6622 24.8968Z" fill="white"/>
<path d="M26.207 12.4483C26.207 12.1008 26.069 11.7675 25.8233 11.5218C25.5775 11.276 25.2442 11.138 24.8967 11.138H22.276V9.82764H20.9657V11.138H15.7243V9.82764H14.4139V11.138H11.7933C11.4457 11.138 11.1124 11.276 10.8667 11.5218C10.621 11.7675 10.4829 12.1008 10.4829 12.4483V25.5518C10.4829 25.8993 10.621 26.2326 10.8667 26.4783C11.1124 26.7241 11.4457 26.8621 11.7933 26.8621H14.4139V25.5518H11.7933V12.4483H14.4139V13.7587H15.7243V12.4483H20.9657V13.7587H22.276V12.4483H24.8967V16.3794H26.207V12.4483Z" fill="white"/>
</svg>
