<svg width="38" height="38" viewBox="0 0 38 38" fill="none" xmlns="http://www.w3.org/2000/svg">
<circle cx="19" cy="19" r="19" fill="#439FD8"/>
<path fill-rule="evenodd" clip-rule="evenodd" d="M14.0082 22.5732C14.81 22.5732 15.459 21.9243 15.459 21.1225C15.459 20.3207 14.81 19.6717 14.0082 19.6717C13.2065 19.6717 12.5575 20.3207 12.5575 21.1225C12.5575 21.9243 13.2065 22.5732 14.0082 22.5732ZM14.0082 23.5404C15.3439 23.5404 16.4261 22.4581 16.4261 21.1225C16.4261 19.7868 15.3439 18.7046 14.0082 18.7046C12.6726 18.7046 11.5903 19.7868 11.5903 21.1225C11.5903 22.4581 12.6726 23.5404 14.0082 23.5404Z" fill="white"/>
<path fill-rule="evenodd" clip-rule="evenodd" d="M10.4403 26.3398C10.2053 26.5763 10.1395 26.7668 10.1395 26.9254V27.409H18.844V26.9254C18.844 26.7668 18.7782 26.5763 18.5432 26.3398C18.2994 26.0941 17.9198 25.8514 17.43 25.6371C16.4449 25.2068 15.2471 24.9911 14.4917 24.9911C13.7364 24.9911 12.5386 25.2068 11.5535 25.6371C11.0636 25.8514 10.684 26.0941 10.4403 26.3398ZM14.4917 24.0239C12.7165 24.0239 9.17236 24.9959 9.17236 26.9254V28.3761H19.8111V26.9254C19.8111 24.9959 16.267 24.0239 14.4917 24.0239Z" fill="white"/>
<path fill-rule="evenodd" clip-rule="evenodd" d="M24.6469 22.5732C25.4487 22.5732 26.0976 21.9243 26.0976 21.1225C26.0976 20.3207 25.4487 19.6717 24.6469 19.6717C23.8451 19.6717 23.1962 20.3207 23.1962 21.1225C23.1962 21.9243 23.8451 22.5732 24.6469 22.5732ZM24.6469 23.5404C25.983 23.5404 27.0648 22.4581 27.0648 21.1225C27.0648 19.7868 25.983 18.7046 24.6469 18.7046C23.3108 18.7046 22.229 19.7868 22.229 21.1225C22.229 22.4581 23.3108 23.5404 24.6469 23.5404Z" fill="white"/>
<path fill-rule="evenodd" clip-rule="evenodd" d="M19.3279 21.6061C19.5844 21.6061 19.8304 21.5042 20.0118 21.3228C20.1931 21.1414 20.295 20.8954 20.295 20.6389C20.295 20.3824 20.1931 20.1364 20.0118 19.955C19.8304 19.7736 19.5844 19.6717 19.3279 19.6717C19.0714 19.6717 18.8254 19.7736 18.644 19.955C18.4626 20.1364 18.3607 20.3824 18.3607 20.6389C18.3607 20.8954 18.4626 21.1414 18.644 21.3228C18.8254 21.5042 19.0714 21.6061 19.3279 21.6061ZM19.3279 22.5732C20.3966 22.5732 21.2622 21.7076 21.2622 20.6389C21.2622 19.5702 20.3966 18.7046 19.3279 18.7046C18.2592 18.7046 17.3936 19.5702 17.3936 20.6389C17.3936 21.7076 18.2592 22.5732 19.3279 22.5732Z" fill="white"/>
<path fill-rule="evenodd" clip-rule="evenodd" d="M20.1117 26.3398C19.8767 26.5763 19.8109 26.7668 19.8109 26.9254V27.409H28.5153V26.9254C28.5153 26.7668 28.4496 26.5763 28.215 26.3398C27.9708 26.0941 27.5912 25.8514 27.1014 25.6371C26.1163 25.2068 24.9185 24.9911 24.1631 24.9911C23.4078 24.9911 22.2099 25.2068 21.2249 25.6371C20.735 25.8514 20.3554 26.0941 20.1117 26.3398ZM24.1631 24.0239C22.3879 24.0239 18.8438 24.9959 18.8438 26.9254V28.3761H29.4825V26.9254C29.4825 24.9959 25.9383 24.0239 24.1631 24.0239Z" fill="white"/>
<path fill-rule="evenodd" clip-rule="evenodd" d="M19.4511 24.1019C17.8504 24.1019 16.7295 24.8476 16.4079 25.1692L15.7241 24.4854C16.2087 24.0004 17.5695 23.1348 19.4511 23.1348C21.3322 23.1348 22.6935 24.0004 23.178 24.4854L22.4942 25.1692C22.1727 24.8476 21.0512 24.1019 19.4511 24.1019Z" fill="white"/>
<path fill-rule="evenodd" clip-rule="evenodd" d="M15.072 14.8762H13.5448C13.2856 14.8803 13.0281 14.8327 12.7874 14.7363C12.5467 14.6399 12.3276 14.4966 12.1429 14.3147C11.9581 14.1329 11.8114 13.916 11.7112 13.6769C11.611 13.4377 11.5595 13.1811 11.5595 12.9218C11.5595 12.6625 11.611 12.4058 11.7112 12.1667C11.8114 11.9275 11.9581 11.7107 12.1429 11.5288C12.3276 11.3469 12.5467 11.2036 12.7874 11.1072C13.0281 11.0109 13.2856 10.9633 13.5448 10.9674H16.4057C16.9241 10.9674 17.4213 11.1733 17.7878 11.5399C18.1544 11.9065 18.3603 12.4036 18.3603 12.922C18.3603 14.1711 17.486 15.0029 16.2959 15.5769C15.8742 15.78 15.4467 15.9323 15.072 16.0435V14.8762ZM14.1048 17.2539C14.1048 17.2539 14.4994 17.2007 15.072 17.0479C16.5817 16.6451 19.3275 15.5517 19.3275 12.922C19.3275 12.5383 19.2519 12.1584 19.1051 11.8039C18.9582 11.4494 18.743 11.1273 18.4717 10.856C18.2004 10.5847 17.8783 10.3695 17.5238 10.2226C17.1693 10.0758 16.7894 10.0002 16.4057 10.0002H13.5448C13.158 9.99526 12.774 10.0672 12.4152 10.2117C12.0564 10.3563 11.7299 10.5707 11.4546 10.8425C11.1793 11.1143 10.9607 11.4381 10.8115 11.795C10.6623 12.1519 10.5854 12.5349 10.5854 12.9218C10.5854 13.3086 10.6623 13.6917 10.8115 14.0486C10.9607 14.4055 11.1793 14.7293 11.4546 15.0011C11.7299 15.2728 12.0564 15.4872 12.4152 15.6318C12.774 15.7764 13.158 15.8483 13.5448 15.8433H14.1048V17.2539Z" fill="white"/>
<path fill-rule="evenodd" clip-rule="evenodd" d="M23.9696 15.3596H25.1099C25.3692 15.3637 25.6266 15.3161 25.8673 15.2197C26.108 15.1233 26.3271 14.98 26.5119 14.7981C26.6967 14.6163 26.8434 14.3994 26.9436 14.1603C27.0437 13.9211 27.0953 13.6645 27.0953 13.4052C27.0953 13.1459 27.0437 12.8892 26.9436 12.6501C26.8434 12.4109 26.6967 12.1941 26.5119 12.0122C26.3271 11.8303 26.108 11.687 25.8673 11.5906C25.6266 11.4943 25.3692 11.4467 25.1099 11.4508H23.2162C22.9595 11.4508 22.7054 11.5014 22.4682 11.5996C22.2311 11.6978 22.0156 11.8418 21.8341 12.0233C21.6526 12.2048 21.5086 12.4203 21.4104 12.6574C21.3122 12.8946 21.2616 13.1487 21.2616 13.4054C21.2616 14.7145 22.0697 15.5346 23.077 16.0811C23.3806 16.246 23.6877 16.3761 23.9696 16.4776V15.3596ZM24.9368 17.7373C24.9368 17.7373 24.5354 17.6764 23.9696 17.4984C22.6093 17.0705 20.2944 15.9665 20.2944 13.4054C20.2944 12.6305 20.6023 11.8874 21.1502 11.3394C21.6981 10.7915 22.4413 10.4836 23.2162 10.4836H25.1099C25.4967 10.4787 25.8807 10.5506 26.2395 10.6951C26.5984 10.8397 26.9249 11.0541 27.2002 11.3259C27.4755 11.5977 27.6941 11.9215 27.8433 12.2784C27.9925 12.6353 28.0693 13.0183 28.0693 13.4052C28.0693 13.792 27.9925 14.1751 27.8433 14.532C27.6941 14.8889 27.4755 15.2127 27.2002 15.4844C26.9249 15.7562 26.5984 15.9706 26.2395 16.1152C25.8807 16.2598 25.4967 16.3317 25.1099 16.3267H24.9368V17.7373Z" fill="white"/>
</svg>
