<svg width="38" height="38" viewBox="0 0 38 38" fill="none" xmlns="http://www.w3.org/2000/svg">
<circle cx="19" cy="19" r="19" fill="#439FD8"/>
<path d="M28.1724 17.034H27.5172V13.103C27.5172 12.9292 27.4482 12.7626 27.3253 12.6397C27.2025 12.5169 27.0358 12.4478 26.862 12.4478H11.1379C10.9828 12.4504 10.8318 12.3978 10.7118 12.2994C10.5918 12.201 10.5106 12.0632 10.4827 11.9106V11.6747C10.5106 11.5221 10.5918 11.3843 10.7118 11.286C10.8318 11.1876 10.9828 11.135 11.1379 11.1375H26.5869C26.7606 11.1375 26.9273 11.0685 27.0502 10.9456C27.173 10.8227 27.2421 10.6561 27.2421 10.4823C27.2421 10.3086 27.173 10.1419 27.0502 10.019C26.9273 9.89618 26.7606 9.82715 26.5869 9.82715H11.1379C10.6166 9.82715 10.1167 10.0342 9.74808 10.4028C9.37948 10.7714 9.17239 11.2714 9.17239 11.7927C9.1678 11.8712 9.1678 11.95 9.17239 12.0285V25.5054C9.17497 25.8582 9.247 26.207 9.38437 26.5319C9.52175 26.8568 9.72178 27.1515 9.97304 27.3991C10.2243 27.6467 10.5219 27.8424 10.8488 27.975C11.1757 28.1076 11.5255 28.1746 11.8783 28.172H26.862C27.0358 28.172 27.2025 28.1029 27.3253 27.9801C27.4482 27.8572 27.5172 27.6906 27.5172 27.5168V23.5858H28.1724C28.3462 23.5858 28.5128 23.5167 28.6357 23.3939C28.7585 23.271 28.8276 23.1044 28.8276 22.9306V17.6892C28.8276 17.5155 28.7585 17.3488 28.6357 17.2259C28.5128 17.1031 28.3462 17.034 28.1724 17.034ZM26.2069 26.8616H11.8783C11.5139 26.8652 11.1628 26.7246 10.9015 26.4707C10.6401 26.2167 10.4896 25.8698 10.4827 25.5054V13.6796C10.6954 13.7412 10.9167 13.7677 11.1379 13.7582H26.2069V17.034H21.6207C20.7519 17.034 19.9186 17.3792 19.3043 17.9935C18.6899 18.6079 18.3448 19.4411 18.3448 20.3099C18.3448 21.1787 18.6899 22.0119 19.3043 22.6263C19.9186 23.2406 20.7519 23.5858 21.6207 23.5858H26.2069V26.8616ZM27.5172 22.2754H21.6207C21.0994 22.2754 20.5994 22.0683 20.2308 21.6997C19.8622 21.3311 19.6552 20.8312 19.6552 20.3099C19.6552 19.7886 19.8622 19.2887 20.2308 18.9201C20.5994 18.5515 21.0994 18.3444 21.6207 18.3444H27.5172V22.2754Z" fill="white"/>
<path d="M22.2821 21.2927C22.8248 21.2927 23.2648 20.8527 23.2648 20.3099C23.2648 19.7671 22.8248 19.3271 22.2821 19.3271C21.7393 19.3271 21.2993 19.7671 21.2993 20.3099C21.2993 20.8527 21.7393 21.2927 22.2821 21.2927Z" fill="white"/>
</svg>
