<svg width="38" height="38" viewBox="0 0 38 38" fill="none" xmlns="http://www.w3.org/2000/svg">
<circle cx="19" cy="19" r="19" fill="#439FD8"/>
<path d="M15.5086 9.92541L14.6875 10.1731C13.9551 10.3937 13.301 10.819 12.8022 11.3989C12.3034 11.9788 11.9807 12.6891 11.872 13.4462C11.5314 15.8179 12.2929 18.5909 14.129 21.7711C15.9605 24.9433 17.9766 26.9869 20.1958 27.8815C20.9088 28.1688 21.6893 28.2454 22.4446 28.1021C23.1999 27.9588 23.8981 27.6016 24.4563 27.0729L25.079 26.4835C25.4825 26.1013 25.7335 25.5857 25.7854 25.0324C25.8372 24.4791 25.6865 23.9258 25.3611 23.4753L23.806 21.3193C23.5958 21.0282 23.2997 20.8102 22.9593 20.6958C22.619 20.5815 22.2514 20.5765 21.908 20.6816L19.5558 21.4007L19.4951 21.4122C19.2359 21.45 18.6384 20.8892 17.8929 19.5979C17.1131 18.2469 16.9502 17.4567 17.1658 17.2526L18.3631 16.1367C18.8004 15.7288 19.0989 15.1943 19.217 14.6081C19.3351 14.022 19.2667 13.4135 19.0214 12.8682L18.2645 11.1812C18.0362 10.673 17.6307 10.2654 17.1238 10.0343C16.6168 9.80318 16.0431 9.76449 15.5098 9.92541H15.5086ZM17.2174 11.6514L17.9755 13.3384C18.1229 13.6655 18.1641 14.0306 18.0934 14.3823C18.0226 14.7341 17.8434 15.0548 17.581 15.2995L16.3814 16.4165C15.613 17.1425 15.8676 18.3845 16.8986 20.1713C17.87 21.8525 18.7553 22.6828 19.7061 22.5383L19.8483 22.5085L22.2429 21.778C22.3573 21.7428 22.4799 21.7444 22.5935 21.7824C22.707 21.8205 22.8058 21.8931 22.8759 21.9902L24.4311 24.1462C24.5939 24.3715 24.6694 24.6483 24.6434 24.9251C24.6175 25.2018 24.4919 25.4598 24.29 25.6509L23.6673 26.2403C23.2686 26.6177 22.7699 26.8726 22.2306 26.9749C21.6912 27.0771 21.1338 27.0224 20.6247 26.8172C18.6774 26.0328 16.8367 24.1669 15.1222 21.1977C13.4042 18.2216 12.7092 15.6906 13.0074 13.6091C13.085 13.0681 13.3155 12.5606 13.6719 12.1463C14.0283 11.732 14.4957 11.4282 15.0189 11.2707L15.8412 11.0229C16.1078 10.9428 16.3945 10.9624 16.6477 11.0781C16.9009 11.1937 17.1034 11.3975 17.2174 11.6514Z" fill="white"/>
</svg>
