<svg width="38" height="38" viewBox="0 0 38 38" fill="none" xmlns="http://www.w3.org/2000/svg">
<circle cx="19" cy="19" r="19" fill="#439FD8"/>
<path d="M14.9162 18.6943H14.2829V19.961H14.9162V18.6943ZM22.5162 19.961H23.1496V18.6943H22.5162V19.961ZM14.9162 14.8943H14.2829V16.161H14.9162V14.8943ZM17.4496 16.161H18.0829V14.8943H17.4496V16.161ZM22.5162 10.461L22.9646 10.0126L22.7784 9.82764H22.5162V10.461ZM26.3162 14.261H26.9496V13.9988L26.7646 13.8126L26.3162 14.261ZM19.3496 23.761L18.9012 24.2094L19.3496 23.761ZM18.7162 24.3943L19 24.9605L19.0506 24.9352L19.0962 24.901L18.7162 24.3943ZM14.9162 19.961H22.5162V18.6943H14.9162V19.961ZM14.9162 16.161H17.4496V14.8943H14.9162V16.161ZM25.0496 27.561H12.3829V28.8276H25.0496V27.561ZM11.7496 26.9276V11.7276H10.4829V26.9276H11.7496ZM12.3829 11.0943H22.5162V9.82764H12.3829V11.0943ZM25.6829 14.261V26.9276H26.9496V14.261H25.6829ZM22.0678 10.9094L25.8678 14.7094L26.7646 13.8126L22.9646 10.0126L22.0678 10.9094ZM12.3829 27.561C12.2149 27.561 12.0538 27.4942 11.9351 27.3755C11.8163 27.2567 11.7496 27.0956 11.7496 26.9276H10.4829C10.4829 27.4315 10.6831 27.9148 11.0394 28.2711C11.3957 28.6275 11.879 28.8276 12.3829 28.8276V27.561ZM25.0496 28.8276C25.5535 28.8276 26.0368 28.6275 26.3931 28.2711C26.7494 27.9148 26.9496 27.4315 26.9496 26.9276H25.6829C25.6829 27.0956 25.6162 27.2567 25.4974 27.3755C25.3786 27.4942 25.2175 27.561 25.0496 27.561V28.8276ZM11.7496 11.7276C11.7496 11.5597 11.8163 11.3986 11.9351 11.2798C12.0538 11.161 12.2149 11.0943 12.3829 11.0943V9.82764C11.879 9.82764 11.3957 10.0278 11.0394 10.3841C10.6831 10.7405 10.4829 11.2237 10.4829 11.7276H11.7496ZM16.15 24.5944C16.2906 24.1726 16.6908 23.7812 17.2013 23.6444C17.6788 23.5165 18.2932 23.6001 18.9012 24.2094L19.798 23.3126C18.886 22.4006 17.8106 22.1688 16.8732 22.4208C15.9701 22.664 15.2304 23.3493 14.9479 24.1942L16.1512 24.5944H16.15ZM18.9012 24.2094C18.9368 24.244 18.9702 24.2808 19.0012 24.3196L20.0019 23.5418C19.9387 23.4617 19.8706 23.3855 19.798 23.3138L18.9012 24.2094ZM19.0012 24.3196C19.1 24.4462 19.0772 24.4868 19.081 24.4589C19.0836 24.4412 19.0886 24.4703 19.0126 24.5387C18.9031 24.6302 18.7789 24.7026 18.6453 24.7528C18.4848 24.8174 18.3173 24.8633 18.1462 24.8896C18.0419 24.9094 17.9352 24.9137 17.8296 24.9022C17.808 24.8972 17.8524 24.9022 17.9182 24.9491C17.999 25.0114 18.0584 25.0974 18.0881 25.195C18.1179 25.2926 18.1165 25.397 18.0842 25.4938C18.077 25.5148 18.0672 25.5348 18.055 25.5533C18.0525 25.5558 18.074 25.528 18.1462 25.4684C18.2906 25.3519 18.5566 25.1822 19 24.9618L18.4325 23.8281C17.955 24.0662 17.5965 24.2841 17.3508 24.483C17.2262 24.5802 17.1154 24.694 17.0214 24.8212C16.902 24.9811 16.8396 25.1764 16.8441 25.376C16.8568 25.6496 17.005 25.851 17.1671 25.9688C17.3102 26.0752 17.4686 26.1208 17.5851 26.1448C17.822 26.1917 18.0918 26.179 18.3362 26.1423C18.8176 26.0688 19.4408 25.8611 19.8651 25.476C20.0855 25.2746 20.2945 24.9858 20.3388 24.6071C20.3844 24.2195 20.2451 23.856 20.0006 23.5431L19 24.3196H19.0012ZM19.0962 24.901C19.2989 24.746 19.5191 24.6155 19.7524 24.5121L19.2495 23.3493C18.9455 23.481 18.6415 23.6596 18.3362 23.8876L19.0962 24.901ZM19.7524 24.5121C20.5757 24.1562 21.3116 24.3436 22.0653 24.7021C22.2553 24.7933 22.4402 24.8921 22.6277 24.9934C22.8101 25.0922 23.0026 25.1974 23.185 25.2911C23.5346 25.4672 23.9678 25.661 24.4162 25.661V24.3943C24.2972 24.3943 24.1021 24.3348 23.7576 24.1612C23.5954 24.0776 23.4257 23.9839 23.2306 23.8788C23.0406 23.7762 22.8304 23.6634 22.61 23.5596C21.7258 23.1378 20.5694 22.7793 19.2495 23.3493L19.7524 24.5121Z" fill="white"/>
</svg>
