<svg width="61" height="51" viewBox="0 0 61 51" fill="none" xmlns="http://www.w3.org/2000/svg">
<path fill-rule="evenodd" clip-rule="evenodd" d="M59.1627 42.375H51.8133V51H49.6084V42.375H47.7711V30.75H49.241V22.5H51.4458V30.75H54.0181V21.75C54.0201 21.0219 53.855 20.3035 53.5359 19.6523C53.2169 19.001 52.7527 18.4352 52.1807 18C50.2221 16.53 49.7003 16.5 48.506 16.5H42.6265C42.6265 16.5 40.3592 16.7512 39.3193 17.625C38.2793 18.4988 37.5113 19.8113 37.4819 21C37.4508 21.3743 37.4508 21.7507 37.4819 22.125H35.2771C35.2771 22.125 35.2477 19.2188 36.3795 17.625C37.5113 16.0312 39.3193 14.625 41.5241 14.625H49.241C50.0614 14.6213 50.8743 14.7853 51.6316 15.1073C52.389 15.4293 53.0755 15.9029 53.6506 16.5C55.6092 18.5325 56.1935 20.4075 56.2229 22.125C56.2449 23.445 56.2339 28.4775 56.2266 30.75H61V42.375H59.1627ZM58.7952 33H49.9759V40.125H58.7952V33ZM50.3397 7.72128V7.82996C50.3403 7.8401 50.339 7.8503 50.336 7.85999C50.2987 9.2208 49.8379 10.5342 49.0205 11.61C47.6498 13.2712 46.6136 13.485 44.9379 13.4962C44.9159 13.4962 44.8938 13.5 44.8717 13.5C44.8607 13.5 44.846 13.4962 44.835 13.4962C44.824 13.4962 44.8093 13.5 44.7946 13.5C44.7725 13.5 44.7505 13.4962 44.7284 13.4962C43.0564 13.485 42.0165 13.2712 40.6458 11.61C39.8317 10.5323 39.3713 9.22009 39.3303 7.85999C39.3303 7.84874 39.3266 7.84121 39.3266 7.82996V7.72128C39.323 7.62003 39.3266 7.55997 39.3266 7.55997V5.94003C39.3266 5.94003 39.323 5.87622 39.3266 5.77872V5.67004C39.3266 5.65879 39.3303 5.64751 39.3303 5.63626C39.3703 4.27836 39.828 2.96773 40.6385 1.89001C42.0349 0.180015 43.0858 0 44.835 0C46.5842 0 47.6315 0.180015 49.0315 1.89001C49.8413 2.96785 50.2977 4.27864 50.336 5.63626C50.339 5.64723 50.3403 5.65866 50.3397 5.67004V5.77872C50.3434 5.87622 50.3397 5.94003 50.3397 5.94003V7.55997C50.3397 7.55997 50.3434 7.62003 50.3397 7.72128ZM48.4913 6.1875C48.4746 5.11513 48.1102 4.0786 47.4551 3.23996C47.1159 2.74689 46.6178 2.39119 46.0477 2.23499C45.819 2.19615 45.5884 2.17113 45.3568 2.16C45.1474 2.1525 44.9746 2.14874 44.835 2.14499C44.6917 2.14874 44.5226 2.1525 44.3095 2.16C44.0792 2.17094 43.8497 2.19597 43.6223 2.23499C43.0507 2.38998 42.551 2.74585 42.2113 3.23996C41.5561 4.0786 41.1918 5.11513 41.175 6.1875V6.75C41.175 8.145 41.3514 9.04504 42.2333 10.26C42.6038 10.7906 43.1559 11.1599 43.7804 11.295C43.9457 11.3175 44.1111 11.3325 44.2654 11.34H44.3279C44.5337 11.3475 44.699 11.3513 44.835 11.3513C44.971 11.3513 45.1363 11.3475 45.3384 11.34H45.4009C45.5589 11.3325 45.7206 11.3175 45.8896 11.295C46.5134 11.1581 47.0648 10.7891 47.4367 10.26C48.3149 9.04504 48.4913 8.145 48.4913 6.75V6.1875ZM31.6024 26.25H31.2349V24H33.8072V26.25H31.6024ZM27.5602 26.25H27.1928V24H29.7651V26.25H27.5602ZM23.5181 22.125C23.5492 21.7507 23.5492 21.3743 23.5181 21C23.4887 19.8113 22.7207 18.4988 21.6807 17.625C20.6408 16.7512 18.3735 16.5 18.3735 16.5H12.494C11.2997 16.5 10.7779 16.53 8.81928 18C8.24727 18.4352 7.78312 19.001 7.46405 19.6523C7.14498 20.3035 6.97986 21.0219 6.98193 21.75V30.75H9.55422V22.5H11.759V30.75H13.2289V42.375H11.3916V51H9.18675V42.375H0V30.75H4.77343C4.76608 28.4775 4.75506 23.445 4.77711 22.125C4.80651 20.4075 5.39078 18.5325 7.3494 16.5C7.92453 15.9029 8.61102 15.4293 9.36837 15.1073C10.1257 14.7853 10.9386 14.6213 11.759 14.625H19.4759C21.6807 14.625 23.4887 16.0312 24.6205 17.625C25.7523 19.2188 25.7229 22.125 25.7229 22.125H23.5181ZM2.20482 33V40.125H11.0241V33H2.20482ZM21.6734 7.72128V7.82996C21.6734 7.84121 21.6697 7.84874 21.6697 7.85999C21.6287 9.22009 21.1683 10.5323 20.3542 11.61C18.9835 13.2712 17.9436 13.485 16.2716 13.4962C16.2495 13.4962 16.2275 13.5 16.2054 13.5C16.1907 13.5 16.1797 13.4962 16.165 13.4962C16.1503 13.4962 16.1393 13.5 16.1283 13.5C16.1062 13.5 16.0841 13.4962 16.0621 13.4962C14.3864 13.485 13.3502 13.2712 11.9795 11.61C11.1621 10.5342 10.7013 9.2208 10.664 7.85999C10.6598 7.85051 10.6573 7.84032 10.6566 7.82996V5.67004C10.6573 5.65847 10.6598 5.64704 10.664 5.63626C10.7023 4.27864 11.1587 2.96785 11.9685 1.89001C13.3685 0.180015 14.4195 0 16.165 0C17.9105 0 18.9651 0.180015 20.3615 1.89001C21.172 2.96773 21.6297 4.27836 21.6697 5.63626C21.6697 5.64751 21.6734 5.65879 21.6734 5.67004V5.77872C21.677 5.87622 21.6734 5.94003 21.6734 5.94003V7.55997C21.6734 7.55997 21.677 7.62003 21.6734 7.72128ZM19.825 6.1875C19.8066 5.11544 19.4424 4.07943 18.7887 3.23996C18.449 2.74585 17.9493 2.38998 17.3777 2.23499C17.1503 2.19597 16.9208 2.17094 16.6905 2.16C16.4774 2.1525 16.3083 2.14874 16.165 2.14499C16.0254 2.14874 15.8526 2.1525 15.6432 2.16C15.4116 2.17113 15.181 2.19615 14.9523 2.23499C14.3822 2.39119 13.8841 2.74689 13.5449 3.23996C12.8898 4.0786 12.5254 5.11513 12.5087 6.1875V6.75C12.5087 8.145 12.6851 9.04504 13.5633 10.26C13.9352 10.7891 14.4866 11.1581 15.1104 11.295C15.2794 11.3175 15.4411 11.3325 15.5991 11.34H15.6616C15.8637 11.3475 16.0327 11.3513 16.165 11.3513C16.2973 11.3513 16.4663 11.3475 16.6721 11.34H16.7346C16.8889 11.3325 17.0543 11.3175 17.2196 11.295C17.8441 11.1599 18.3962 10.7906 18.7667 10.26C19.6486 9.04504 19.825 8.145 19.825 6.75V6.1875ZM13.5927 24.4462L14.4011 23.6212L15.7938 22.4175L19.6082 18.5212L21.1699 20.115L17.3593 24H25.7229V26.25H17.3482L21.3169 29.5538L19.7736 31.1288L15.0736 27.0825L14.934 26.8538L13.7397 25.635L13.1481 25.1175L13.5927 24.4462ZM17.2711 51H15.0663V34.875H17.2711V51ZM23.1506 33C23.3655 32.5951 23.4909 32.1471 23.5181 31.6875V28.125H25.7229V31.875H25.6604C25.5612 32.6775 25.304 33.9075 24.6205 34.5C24.2052 34.86 23.6577 35.4863 23.1506 35.6588V51H20.9458V33.75H21.9049C22.1579 33.7437 22.4052 33.6715 22.6233 33.5403C22.8413 33.409 23.0228 33.223 23.1506 33ZM39.8301 20.115L41.3918 18.5212L45.2062 22.4175L46.5989 23.6212L47.4073 24.4462L47.8519 25.1175L47.2603 25.635L46.066 26.8538L45.9264 27.0825L41.2264 31.1288L39.6831 29.5538L43.6518 26.25H35.2771V24H43.6407L39.8301 20.115ZM37.4819 31.6875C37.5091 32.1471 37.6345 32.5951 37.8494 33C37.9772 33.223 38.1587 33.409 38.3767 33.5403C38.5948 33.6715 38.8421 33.7437 39.0951 33.75H40.0542V51H37.8494V35.6588C37.3423 35.4863 36.7948 34.86 36.3795 34.5C35.696 33.9075 35.4388 32.6775 35.3396 31.875H35.2771V28.125H37.4819V31.6875ZM45.9337 51H43.7289V34.875H45.9337V51Z" fill="white"/>
</svg>
