<svg width="53" height="61" viewBox="0 0 53 61" fill="none" xmlns="http://www.w3.org/2000/svg">
<path fill-rule="evenodd" clip-rule="evenodd" d="M46.9434 24.695H49.0476V36.6129H46.9434V24.695ZM5.91171 36.6129H3.80752V24.695H5.91171V36.6129ZM47.8482 22.4446C46.5014 22.4461 45.208 21.9186 44.2466 20.9759L41.7531 22.5428C43.0831 25.0267 43.7817 27.7994 43.7872 30.6167C43.7927 33.434 43.105 36.2094 41.7847 38.6985L44.1414 40.1707C45.0357 39.2478 46.244 38.6942 47.5273 38.6194C48.8105 38.5446 50.0751 38.9541 51.0707 39.7669C52.0662 40.5797 52.7201 41.7364 52.903 43.0082C53.0858 44.2799 52.7843 45.5739 52.0581 46.634C51.3318 47.6941 50.2338 48.443 48.9815 48.7325C47.7291 49.0219 46.4136 48.8309 45.2955 48.1971C44.1773 47.5633 43.338 46.5329 42.9438 45.31C42.5495 44.0872 42.6289 42.7609 43.1664 41.5938L40.9009 40.1812C39.398 42.4354 37.3825 44.3021 35.0193 45.6284C32.6561 46.9547 30.0124 47.703 27.3043 47.8122V50.7741C28.5774 50.9758 29.7284 51.6475 30.5298 52.6565C31.3313 53.6655 31.7248 54.9384 31.6326 56.2234C31.5404 57.5084 30.9692 58.7121 30.0319 59.5965C29.0946 60.4808 27.8595 60.9815 26.5706 60.9995C25.2818 61.0175 24.0331 60.5516 23.0714 59.6938C22.1097 58.836 21.505 57.6489 21.3769 56.3669C21.2487 55.085 21.6064 53.8016 22.3793 52.7706C23.1522 51.7396 24.2839 51.0359 25.5508 50.7986V47.7946C22.8937 47.6328 20.3106 46.8556 18.0056 45.5246C15.7005 44.1935 13.7367 42.3451 12.2692 40.1251L9.83812 41.5938C10.1489 42.2639 10.3101 42.9935 10.3105 43.7321C10.3138 44.9274 9.90121 46.0867 9.14338 47.0114C8.38555 47.9361 7.32966 48.5688 6.1565 48.8009C4.98333 49.0331 3.76592 48.8503 2.71274 48.2839C1.65956 47.7176 0.836129 46.8028 0.383495 45.6964C-0.0691383 44.59 -0.122821 43.3607 0.231627 42.2191C0.586076 41.0774 1.3266 40.0945 2.3264 39.4386C3.3262 38.7826 4.52306 38.4946 5.712 38.6237C6.90094 38.7528 8.00797 39.291 8.84354 40.1462L11.3777 38.6144C10.0962 36.1681 9.42417 33.4489 9.41874 30.6876C9.4133 27.9262 10.0746 25.2044 11.3465 22.7531L8.62611 21.0986C7.67707 21.9562 6.44089 22.4272 5.16149 22.4186C3.88208 22.41 2.65236 21.9224 1.71497 21.052C0.777579 20.1817 0.200598 18.9918 0.0978678 17.7171C-0.00486256 16.4424 0.374127 15.1756 1.16005 14.1665C1.94596 13.1574 3.08173 12.4793 4.34326 12.2661C5.60479 12.0529 6.90046 12.3201 7.97461 13.0148C9.04876 13.7096 9.82339 14.7815 10.1456 16.019C10.4679 17.2566 10.3144 18.57 9.71539 19.7L12.2369 21.2318C13.7019 18.9982 15.6683 17.1373 17.9798 15.7973C20.2912 14.4573 22.8837 13.6752 25.5508 13.5132V10.2428C24.2782 10.008 23.14 9.30437 22.3614 8.27111C21.5829 7.23784 21.2206 5.95022 21.3463 4.66281C21.4719 3.3754 22.0764 2.18196 23.0401 1.31861C24.0038 0.455257 25.2566 -0.015149 26.5507 0.000372205C27.8447 0.0158934 29.0859 0.516258 30.0286 1.40248C30.9713 2.28869 31.5469 3.49624 31.6417 4.7863C31.7364 6.07635 31.3433 7.35497 30.5402 8.36926C29.737 9.38355 28.5823 10.0597 27.3043 10.2639V13.4957C29.9992 13.6043 32.6306 14.3457 34.9854 15.6599C37.3403 16.974 39.3524 18.824 40.8588 21.06L43.2296 19.5703C42.8786 18.867 42.6961 18.0918 42.6965 17.3059C42.6944 16.287 42.9948 15.2904 43.5596 14.4423C44.1244 13.5941 44.9283 12.9325 45.8695 12.5412C46.8107 12.1498 47.8468 12.0463 48.8469 12.2438C49.8469 12.4413 50.7658 12.9309 51.4874 13.6506C52.2089 14.3703 52.7006 15.2879 52.9002 16.287C53.0999 17.2861 52.9985 18.322 52.6089 19.2635C52.2193 20.205 51.5589 21.0098 50.7115 21.5761C49.8641 22.1424 48.8676 22.4446 47.8482 22.4446ZM47.8482 47.0375C48.5017 47.0365 49.1402 46.8419 49.683 46.4783C50.2258 46.1148 50.6486 45.5985 50.8981 44.9949C51.1475 44.3912 51.2123 43.7272 51.0843 43.0867C50.9563 42.4463 50.6413 41.8581 50.179 41.3965C49.7167 40.9349 49.1279 40.6206 48.487 40.4934C47.846 40.3661 47.1818 40.4316 46.5781 40.6816C45.9744 40.9315 45.4583 41.3547 45.0952 41.8976C44.732 42.4406 44.538 43.079 44.5377 43.7321C44.5377 44.1664 44.6233 44.5965 44.7897 44.9978C44.9561 45.399 45.2001 45.7636 45.5075 46.0706C45.815 46.3776 46.18 46.621 46.5816 46.7869C46.9833 46.9528 47.4136 47.038 47.8482 47.0375ZM5.1584 40.4301C4.50488 40.4314 3.86642 40.6264 3.3237 40.9902C2.78098 41.3541 2.35837 41.8706 2.10927 42.4745C1.86017 43.0784 1.79575 43.7426 1.92418 44.3831C2.05261 45.0235 2.36813 45.6116 2.83083 46.0729C3.29353 46.5342 3.88264 46.848 4.52375 46.9747C5.16485 47.1014 5.82917 47.0354 6.43273 46.7849C7.03628 46.5344 7.55199 46.1107 7.91468 45.5673C8.27737 45.0239 8.47076 44.3853 8.47041 43.7321C8.46911 42.8553 8.11947 42.0149 7.49839 41.3957C6.87731 40.7765 6.03563 40.4291 5.1584 40.4301ZM5.1584 14.0039C4.50488 14.0053 3.86642 14.2002 3.3237 14.5641C2.78098 14.9279 2.35837 15.4445 2.10927 16.0484C1.86017 16.6523 1.79575 17.3164 1.92418 17.9569C2.05261 18.5973 2.36813 19.1854 2.83083 19.6467C3.29353 20.108 3.88264 20.4218 4.52375 20.5486C5.16485 20.6753 5.82917 20.6093 6.43273 20.3588C7.03628 20.1083 7.55199 19.6845 7.91468 19.1411C8.27737 18.5977 8.47076 17.9591 8.47041 17.3059C8.46911 16.4291 8.11947 15.5887 7.49839 14.9695C6.87731 14.3503 6.03563 14.003 5.1584 14.0039ZM23.1913 55.8463C23.1903 56.5012 23.3838 57.1417 23.7471 57.6867C24.1105 58.2317 24.6274 58.6568 25.2325 58.9081C25.8376 59.1594 26.5037 59.2257 27.1465 59.0985C27.7893 58.9713 28.3799 58.6564 28.8435 58.1937C29.3072 57.7309 29.6231 57.1411 29.7513 56.4988C29.8795 55.8565 29.8142 55.1906 29.5637 54.5855C29.3131 53.9803 28.8886 53.4629 28.3439 53.099C27.7991 52.735 27.1586 52.5407 26.5033 52.5407C26.0687 52.5402 25.6382 52.6254 25.2364 52.7912C24.8347 52.9571 24.4696 53.2005 24.162 53.5075C23.8544 53.8145 23.6104 54.179 23.4438 54.5803C23.2773 54.9816 23.1915 55.4118 23.1913 55.8463ZM29.8153 5.19528C29.817 4.54019 29.6242 3.89931 29.2612 3.35382C28.8983 2.80832 28.3817 2.38267 27.7766 2.13083C27.1716 1.87898 26.5054 1.81227 25.8624 1.93905C25.2193 2.06583 24.6284 2.38046 24.1644 2.84309C23.7004 3.30572 23.3841 3.89549 23.2556 4.53787C23.1271 5.18024 23.1922 5.84635 23.4426 6.45173C23.6931 7.05711 24.1176 7.5746 24.6624 7.93872C25.2073 8.30284 25.8479 8.4972 26.5033 8.4972C27.3805 8.49795 28.2221 8.15053 28.8431 7.53137C29.4641 6.91222 29.8138 6.07201 29.8153 5.19528ZM26.6029 15.2308C23.551 15.2308 20.5676 16.1353 18.0301 17.83C15.4925 19.5248 13.5147 21.9335 12.3468 24.7517C11.1789 27.5699 10.8733 30.671 11.4687 33.6628C12.0641 36.6546 13.5337 39.4028 15.6918 41.5598C17.8498 43.7167 20.5993 45.1856 23.5925 45.7807C26.5858 46.3758 29.6884 46.0704 32.508 44.903C35.3276 43.7357 37.7376 41.7589 39.4331 39.2226C41.1287 36.6862 42.0337 33.7043 42.0337 30.6539C42.0337 26.5635 40.4079 22.6405 37.5141 19.7481C34.6203 16.8557 30.6954 15.2308 26.6029 15.2308ZM47.8482 14.0039C47.1947 14.005 46.556 14.1996 46.0131 14.5634C45.4702 14.9271 45.0474 15.4436 44.7981 16.0475C44.5488 16.6513 44.4842 17.3155 44.6124 17.956C44.7407 18.5966 45.0561 19.1847 45.5188 19.6462C45.9814 20.1076 46.5705 20.4216 47.2117 20.5485C47.8528 20.6753 48.5172 20.6093 49.1208 20.3589C49.7245 20.1084 50.2403 19.6847 50.603 19.1413C50.9658 18.5979 51.1592 17.9591 51.1589 17.3059C51.1585 16.8718 51.0726 16.442 50.906 16.0411C50.7394 15.6402 50.4954 15.2761 50.188 14.9694C49.8805 14.6628 49.5157 14.4197 49.1142 14.254C48.7128 14.0884 48.2826 14.0034 47.8482 14.0039ZM33.7737 37.6294C33.8056 36.371 33.1042 35.3369 31.0961 34.2398C30.1886 33.726 29.1799 33.4161 28.1404 33.3319C27.9489 33.3354 27.7476 33.3354 27.526 33.3354C27.0673 33.3284 26.7064 33.325 26.41 33.3215C26.1137 33.325 25.7532 33.3284 25.2945 33.3354C25.0725 33.3354 24.8715 33.3354 24.6797 33.3319C23.6402 33.4161 22.6317 33.7259 21.7244 34.2398C19.7159 35.3369 19.0149 36.371 19.0468 37.6294C19.065 38.362 19.0622 39.3855 19.0562 40.1181H17.4848V36.7251C17.4848 36.7251 17.4529 34.8848 19.4929 33.5598C20.7515 32.7431 21.757 32.1717 23.2692 31.8457C24.1436 31.5907 25.0541 31.4818 25.9639 31.5232L26.41 31.5338L26.8565 31.5232C27.7664 31.4818 28.6769 31.5908 29.5512 31.8457C31.0635 32.1717 32.0689 32.7431 33.3272 33.5598C35.3669 34.8848 35.3353 36.7251 35.3353 36.7251V40.1181H33.7638C33.7572 39.3855 33.7551 38.362 33.7737 37.6294ZM31.5422 25.5538V25.6449C31.5422 25.6519 31.5394 25.6625 31.5387 25.673C31.5047 26.8104 31.1127 27.9082 30.4185 28.8102C29.2532 30.2017 28.3694 30.384 26.9445 30.3945H26.7692C25.3443 30.384 24.4605 30.2017 23.2951 28.8102C22.6009 27.9083 22.209 26.8104 22.1754 25.673C22.1754 25.6625 22.1715 25.6519 22.1715 25.6449V25.5538C22.1715 25.4696 22.1715 25.4171 22.1715 25.4171V24.0605C22.1715 24.0605 22.1715 24.0115 22.1715 23.9274V23.8362C22.1723 23.8268 22.1736 23.8174 22.1754 23.8081C22.2083 22.6718 22.5972 21.5745 23.2874 20.671C24.4774 19.2373 25.3699 19.0866 26.8575 19.0866C28.3452 19.0866 29.2374 19.2373 30.4276 20.671C31.1177 21.5746 31.5067 22.6719 31.5397 23.8081C31.5397 23.8187 31.5432 23.8257 31.5432 23.8362V23.9274C31.5432 24.0115 31.5432 24.0605 31.5432 24.0605V25.4171C31.5432 25.4171 31.5436 25.4696 31.5422 25.5538ZM29.9689 24.2709C29.9541 23.3728 29.6445 22.5046 29.0876 21.7996C28.7985 21.3877 28.3741 21.0901 27.8882 20.9584C27.6944 20.9261 27.4988 20.9049 27.3026 20.8953C27.122 20.8918 26.9768 20.8882 26.8565 20.8847C26.7358 20.8882 26.591 20.8918 26.41 20.8953C26.2138 20.9049 26.0182 20.9261 25.8244 20.9584C25.3386 21.0902 24.9142 21.3878 24.625 21.7996C24.0683 22.5046 23.7587 23.3729 23.7437 24.2709V24.7405C23.6697 25.7981 23.9899 26.8457 24.6425 27.6815C24.9573 28.1251 25.4275 28.4341 25.9598 28.5473C26.1 28.5648 26.2403 28.5824 26.3732 28.5859H26.4276C26.6029 28.5894 26.7432 28.5928 26.8579 28.5963C26.9729 28.5928 27.1139 28.5894 27.2878 28.5859H27.3394C27.4723 28.5824 27.6115 28.5648 27.7532 28.5473C28.2854 28.4341 28.7554 28.1251 29.0701 27.6815C29.7227 26.8457 30.0429 25.7981 29.9689 24.7405V24.2709ZM32.9046 10.2848L33.9567 8.42711L41.3323 12.6649L40.2837 14.5262L32.9046 10.2848ZM11.1722 12.4932L18.4927 8.22378L19.5357 10.0991L12.2152 14.3685L11.1722 12.4932ZM19.5595 51.4542L18.5176 53.2804L11.2052 49.1126L12.2471 47.2864L19.5595 51.4542ZM41.334 48.9479L33.9655 53.0841L32.9155 51.2684L40.2854 47.1322L41.334 48.9479Z" fill="white"/>
</svg>
