<svg width="49" height="61" viewBox="0 0 49 61" fill="none" xmlns="http://www.w3.org/2000/svg">
<path fill-rule="evenodd" clip-rule="evenodd" d="M46.8849 20.9244V18.7965H49V20.9244H46.8849ZM43.0072 18.7965H45.1223V20.9244H43.0072V18.7965ZM31.3741 18.7965H41.2446V20.9244H31.3741V18.7965ZM37.6137 18.0305C37.2653 15.2313 36.0409 12.616 34.1176 10.5631C32.1942 8.51017 29.6717 7.12596 26.9147 6.61066L27.4823 4.5147C30.5193 5.07836 33.3204 6.54016 35.5275 8.71328C37.7347 10.8864 39.2477 13.6721 39.8733 16.7147L37.6948 18.0872L37.6137 18.0305ZM23.6187 3.90116H25.7338V13.8314H23.6187V3.90116ZM23.6187 0H25.7338V2.12791H23.6187V0ZM11.3899 18.0092L11.2806 18.0872L9.44397 16.931C10.0201 13.9014 11.4753 11.1114 13.626 8.91295C15.7767 6.71454 18.5264 5.20629 21.5283 4.57852L22.0782 6.61066C19.3266 7.12742 16.809 8.50961 14.8882 10.5581C12.9673 12.6065 11.7424 15.2155 11.3899 18.0092ZM17.9784 20.9244H8.10791V18.7965H17.9784V20.9244ZM3.8777 18.7965H5.99281V20.9244H3.8777V18.7965ZM0 18.7965H2.11511V20.9244H0V18.7965ZM14.492 28.365L14.4532 28.3721L13.0291 30.1631C11.2309 28.1109 10.0027 25.6177 9.46863 22.9353L11.5485 22.3643C12.0033 24.5849 13.0168 26.651 14.492 28.365ZM14.2241 23.0736L15.9514 22.3785C16.3266 23.7389 17.026 24.9867 17.989 26.0137L16.8856 27.567C15.6515 26.3068 14.7384 24.7653 14.2241 23.0736ZM15.4967 30.2695C16.9332 29.3977 18.5086 28.7822 20.1535 28.4501C20.7422 28.248 22.3356 28.099 23.6786 28.1097C23.8408 28.1097 23.9924 28.1132 24.1475 28.1168C24.2991 28.1132 24.4506 28.1097 24.6128 28.1097C25.9559 28.099 28.6068 28.248 29.1955 28.4501C30.8405 28.7815 32.4161 29.3971 33.8523 30.2695C35.9886 31.6775 35.9533 33.6351 35.9533 33.6351V34.7558H35.9568V43.9767H35.9498C35.9216 44.4874 35.7665 45.9983 34.8993 46.9913C33.8417 48.2042 33.1966 48.7042 32.0791 49.1192C31.7423 49.2506 31.3826 49.3121 31.0216 49.3001V61H28.9065V35.1105H31.0216V47.314C31.4498 47.2411 31.8585 47.0804 32.2224 46.8418C32.5863 46.6033 32.8975 46.292 33.1367 45.9273C33.7747 45.0052 33.8876 44.5123 33.8805 43.9767H33.8417V43.3029C33.8222 42.9959 33.8222 42.6879 33.8417 42.3808V34.7558H33.9651C33.9263 33.472 33.1649 32.103 31.1661 30.9929C29.8618 30.2659 28.0322 30.0708 27.366 30.0283C27.165 30.0318 25.547 30.0318 25.3143 30.0318C24.8349 30.0247 24.4577 30.0212 24.1475 30.0176C23.8373 30.0212 23.4601 30.0247 22.9771 30.0318C22.748 30.0318 21.8314 30.0318 21.6305 30.0283C20.3014 30.255 19.0187 30.7007 17.8339 31.3476C15.7293 32.5144 15.2605 32.9613 15.0314 34.5962C15.0243 34.6459 15.0243 34.7026 15.0208 34.7558H15.1583V42.2035C15.1778 42.5105 15.1778 42.8186 15.1583 43.1256V43.9767H15.123C15.1442 44.4484 15.2958 44.9308 15.8633 45.75C16.1025 46.1147 16.4138 46.426 16.7776 46.6645C17.1415 46.9031 17.5502 47.0637 17.9784 47.1367V35.1105H20.0935V61H17.9784V49.1227C17.6174 49.1348 17.2577 49.0733 16.9209 48.9419C15.8034 48.5269 15.1583 48.0269 14.1007 46.814C13.3181 45.9167 13.1137 44.6009 13.0608 43.9767H13.0432V37.2384V33.6351C13.3902 32.2327 14.2714 31.0239 15.4967 30.2695ZM25.7338 61H23.6187V46.814H25.7338V61ZM32.2483 27.7834L31.0462 26.0882C32.035 25.0596 32.7555 23.8011 33.1437 22.4246L35.0861 23.2084C34.5333 24.9471 33.5579 26.5197 32.2483 27.7834ZM35.0579 16.431L33.2812 17.6226C32.9632 16.0779 32.2285 14.6512 31.1577 13.4988C30.0869 12.3465 28.7214 11.5131 27.2108 11.0899L27.9688 9.37341C29.6211 9.90179 31.1252 10.8171 32.3576 12.0439C33.5899 13.2708 34.5154 14.7744 35.0579 16.431ZM15.8069 17.6935L14.2276 16.6367C14.7318 14.9886 15.6136 13.4828 16.8021 12.2403C17.9906 10.9978 19.4524 10.0535 21.07 9.48337L21.7926 11.1148C20.2928 11.5567 18.942 12.4035 17.8867 13.5633C16.8315 14.7231 16.1122 16.1515 15.8069 17.6935ZM28.3495 16.5764C29.0722 17.5404 29.4787 18.7067 29.5128 19.9136C29.5128 19.9207 29.5163 19.9314 29.5163 19.942V20.0378C29.5198 20.1265 29.5163 20.1796 29.5163 20.1796V21.6231C29.5163 21.6231 29.5198 21.6763 29.5163 21.765V21.8607C29.5163 21.8713 29.5128 21.882 29.5128 21.8926C29.4783 23.0995 29.0691 24.2653 28.3425 25.2263C27.1227 26.7052 26.1956 26.8968 24.7044 26.9074H24.5212C23.03 26.8968 22.1064 26.7052 20.8867 25.2263C20.1594 24.2654 19.749 23.0998 19.7128 21.8926C19.7128 21.882 19.7093 21.8713 19.7093 21.8607V19.942C19.7093 19.9314 19.7128 19.9207 19.7128 19.9136C19.7469 18.7067 20.1534 17.5404 20.8761 16.5764C22.124 15.0549 23.0582 14.8953 24.6128 14.8953C26.1674 14.8953 27.1051 15.0549 28.3495 16.5764ZM23.5341 16.885C23.0239 17.0242 22.5792 17.3408 22.2791 17.7786C21.695 18.5287 21.3707 19.4504 21.3555 20.4031V20.9031C21.3555 22.1444 21.5142 22.9424 22.2968 24.0241C22.6238 24.4957 23.1163 24.8253 23.6751 24.9462C23.8188 24.9677 23.9635 24.9806 24.1087 24.9852C24.1252 24.9846 24.1418 24.9858 24.1581 24.9887C24.165 24.9868 24.172 24.9856 24.1792 24.9852C24.1732 24.9855 24.1673 24.9867 24.1616 24.9887C24.3449 24.9923 24.4929 24.9958 24.6128 24.9994C24.7326 24.9958 24.8807 24.9923 25.064 24.9887C25.0595 24.9869 25.0548 24.9857 25.0499 24.9852C25.056 24.9855 25.0619 24.9867 25.0675 24.9887C25.085 24.9856 25.1027 24.9844 25.1204 24.9852C25.2644 24.9805 25.408 24.9675 25.5505 24.9462C26.1097 24.8261 26.6025 24.4964 26.9289 24.0241C27.715 22.9424 27.8701 22.1444 27.8701 20.9031V20.4031C27.8546 19.451 27.5316 18.5298 26.95 17.7786C26.6492 17.3415 26.2048 17.0251 25.695 16.885C25.4925 16.8477 25.2875 16.8251 25.0817 16.8175C24.8913 16.8104 24.7397 16.8069 24.6128 16.8033C24.4859 16.8069 24.3343 16.8104 24.1475 16.8175C23.9417 16.8248 23.7366 16.8473 23.5341 16.885ZM34.5045 28.3685C35.9803 26.6563 36.9939 24.5912 37.448 22.3714L39.8662 23.0346C39.2995 25.7791 38.0074 28.3189 36.126 30.3865L34.5256 28.3721L34.5045 28.3685Z" fill="white"/>
</svg>
