<svg width="22" height="16" viewBox="0 0 22 16" fill="none" xmlns="http://www.w3.org/2000/svg">
<path fill-rule="evenodd" clip-rule="evenodd" d="M1.22199 1.41165C0.114568 2.53964 0.0811506 3.96127 0.014315 6.80453C0.00511674 7.19583 0 7.59536 0 8C0 8.40464 0.00511673 8.80417 0.014315 9.19547C0.0811506 12.0387 0.114568 13.4604 1.22199 14.5883C2.32941 15.7163 3.82395 15.779 6.81303 15.9043C8.16003 15.9608 9.59962 16 11 16C12.4004 16 13.84 15.9608 15.187 15.9043C18.176 15.779 19.6706 15.7163 20.778 14.5883C21.8854 13.4604 21.9188 12.0387 21.9857 9.19547C21.9949 8.80417 22 8.40464 22 8C22 7.59536 21.9949 7.19583 21.9857 6.80453C21.9188 3.96127 21.8854 2.53964 20.778 1.41165C19.6706 0.283667 18.176 0.221009 15.187 0.0956934C13.84 0.039221 12.4004 0 11 0C9.59962 0 8.16003 0.039221 6.81303 0.0956934C3.82395 0.221009 2.32941 0.283667 1.22199 1.41165ZM8 12L15 8L8 4V12Z" fill="white"/>
</svg>
